PathFileType	4	(X/Y/Z)	/home/nbianco/projects/addbio/data/OpenCap2022/Processed/subject2//results/MarkerData/DJ1.trc
DataRate	CameraRate	NumFrames	NumMarkers	Units	OrigDataRate	OrigDataStartFrame	OrigNumFrames
100	100	8	51	m	100	0	129
Frame#	Time	C7			L.ASIS			L.PSIS			L_5meta			L_HJC			L_HJC_reg			L_Shoulder			L_Sternum			L_ankle			L_calc			L_elbow_lat			L_elbow_med			L_forearm			L_humerus			L_knee			L_sh2			L_sh3			L_shank_antsup			L_thigh1			L_thigh2			L_thigh3			L_thigh4			L_toe			L_wrist_radius			L_wrist_ulna			R_HJC			R_HJC_reg			R_Shoulder			R_Sternum			R_elbow_lat			R_elbow_med			R_forearm			R_humerus			R_wrist_radius			R_wrist_ulna			r.ASIS			r.PSIS			r_5meta			r_ankle			r_calc			r_knee			r_sh2			r_sh3			r_sh4			r_shank_antsup			r_thigh1			r_thigh2			r_thigh3			r_thigh4			r_thigh5			r_toe		
		X1	Y1	Z1	X2	Y2	Z2	X3	Y3	Z3	X4	Y4	Z4	X5	Y5	Z5	X6	Y6	Z6	X7	Y7	Z7	X8	Y8	Z8	X9	Y9	Z9	X10	Y10	Z10	X11	Y11	Z11	X12	Y12	Z12	X13	Y13	Z13	X14	Y14	Z14	X15	Y15	Z15	X16	Y16	Z16	X17	Y17	Z17	X18	Y18	Z18	X19	Y19	Z19	X20	Y20	Z20	X21	Y21	Z21	X22	Y22	Z22	X23	Y23	Z23	X24	Y24	Z24	X25	Y25	Z25	X26	Y26	Z26	X27	Y27	Z27	X28	Y28	Z28	X29	Y29	Z29	X30	Y30	Z30	X31	Y31	Z31	X32	Y32	Z32	X33	Y33	Z33	X34	Y34	Z34	X35	Y35	Z35	X36	Y36	Z36	X37	Y37	Z37	X38	Y38	Z38	X39	Y39	Z39	X40	Y40	Z40	X41	Y41	Z41	X42	Y42	Z42	X43	Y43	Z43	X44	Y44	Z44	X45	Y45	Z45	X46	Y46	Z46	X47	Y47	Z47	X48	Y48	Z48	X49	Y49	Z49	X50	Y50	Z50	X51	Y51	Z51

1	1.55	-0.382228	1.71078	-0.630215	-0.412813	1.18085	-0.707109	-0.587819	1.24701	-0.630641	-0.182151	0.0590686	-0.913724	-0.504446	1.10476	-0.668029	-0.488871	1.11791	-0.654537	-0.306154	1.67542	-0.770758	-0.277991	1.59506	-0.628223	-0.278066	0.185802	-0.857667	-0.320124	0.173023	-0.780518	-0.466589	1.47083	-1.0346	-0.524731	1.44903	-0.976456	-0.309239	1.37287	-0.951386	-0.395781	1.49036	-0.958958	-0.323166	0.67584	-0.82052	-0.320062	0.494202	-0.872188	-0.308365	0.374813	-0.86951	-0.240687	0.493154	-0.834228	-0.373375	0.972845	-0.77841	-0.321068	0.849589	-0.799037	-0.476629	0.936224	-0.793973	-0.421495	0.81196	-0.819371	-0.119051	0.0773451	-0.870754	-0.261774	1.34224	-0.907215	-0.257799	1.32914	-0.938637	-0.505437	1.12101	-0.471225	-0.495303	1.12678	-0.480108	-0.333885	1.69025	-0.463587	-0.281694	1.59881	-0.577133	-0.665328	1.66709	-0.301469	-0.70323	1.61971	-0.366449	-0.565876	1.4895	-0.246019	-0.543047	1.6327	-0.331549	-0.522907	1.41334	-0.235905	-0.543648	1.41333	-0.204769	-0.421425	1.21034	-0.444091	-0.591197	1.25167	-0.539021	-0.204733	0.0827057	-0.282682	-0.327864	0.171832	-0.305807	-0.38877	0.153722	-0.368855	-0.30715	0.681153	-0.351044	-0.271233	0.424362	-0.332175	-0.335125	0.538416	-0.303737	-0.33977	0.428675	-0.286592	-0.270536	0.536569	-0.341084	-0.393892	0.963365	-0.358413	-0.335354	0.868683	-0.348086	-0.378844	0.815757	-0.336768	-0.488792	0.905849	-0.379746	-0.428558	0.804422	-0.360677	-0.163681	0.107704	-0.33174
2	1.56	-0.372586	1.68236	-0.629815	-0.403848	1.15281	-0.707056	-0.578838	1.21864	-0.630821	-0.179221	0.0448089	-0.911594	-0.495001	1.07644	-0.668006	-0.479561	1.0897	-0.654499	-0.295733	1.64472	-0.771581	-0.268236	1.56607	-0.627916	-0.271616	0.161485	-0.858276	-0.316996	0.152272	-0.777258	-0.458484	1.43585	-1.03155	-0.516249	1.41507	-0.972623	-0.300712	1.33977	-0.947009	-0.387257	1.45641	-0.956363	-0.305033	0.65257	-0.821337	-0.30178	0.469265	-0.873624	-0.294152	0.349867	-0.868554	-0.223694	0.466289	-0.833391	-0.359026	0.949052	-0.777822	-0.303297	0.827523	-0.800192	-0.461426	0.910448	-0.796365	-0.402829	0.787096	-0.820143	-0.116662	0.0637181	-0.86784	-0.252971	1.30997	-0.902477	-0.249005	1.29635	-0.933725	-0.496027	1.0927	-0.471203	-0.485403	1.09778	-0.479806	-0.325695	1.66028	-0.461581	-0.271989	1.57072	-0.576472	-0.660982	1.6265	-0.30768	-0.695767	1.57888	-0.37323	-0.557109	1.45202	-0.251452	-0.537082	1.59579	-0.335358	-0.510672	1.37842	-0.23932	-0.533243	1.3761	-0.210334	-0.412102	1.1823	-0.443714	-0.581902	1.22288	-0.539215	-0.194438	0.0576216	-0.279884	-0.312322	0.146715	-0.304656	-0.374143	0.132144	-0.369311	-0.292547	0.656132	-0.349504	-0.254793	0.399825	-0.329229	-0.320357	0.513806	-0.302688	-0.324128	0.403431	-0.285388	-0.254712	0.512085	-0.338405	-0.384131	0.936043	-0.357531	-0.324258	0.84267	-0.34573	-0.367146	0.78891	-0.335868	-0.477181	0.87736	-0.382052	-0.415926	0.776874	-0.361504	-0.151714	0.080922	-0.32884
3	1.57	-0.363189	1.6529	-0.629693	-0.395734	1.12382	-0.706831	-0.570906	1.18978	-0.631008	-0.181159	0.039118	-0.909798	-0.486689	1.04738	-0.667963	-0.471227	1.06069	-0.654386	-0.285876	1.61313	-0.772733	-0.258565	1.53638	-0.62747	-0.281437	0.139554	-0.854432	-0.327882	0.124551	-0.773269	-0.449836	1.39876	-1.02823	-0.507159	1.37883	-0.968566	-0.291363	1.30511	-0.942337	-0.378393	1.42074	-0.953725	-0.28172	0.630718	-0.822522	-0.286578	0.445787	-0.873168	-0.28861	0.327258	-0.864149	-0.210343	0.43853	-0.8304	-0.344992	0.92567	-0.779252	-0.284645	0.806583	-0.802255	-0.445749	0.883648	-0.798903	-0.382341	0.762308	-0.822454	-0.120558	0.0609526	-0.864961	-0.243393	1.27632	-0.897413	-0.239351	1.26227	-0.928471	-0.487658	1.06341	-0.47114	-0.476337	1.06759	-0.479393	-0.317151	1.62912	-0.458877	-0.262876	1.5421	-0.577016	-0.655781	1.58228	-0.313179	-0.687195	1.53445	-0.379486	-0.546467	1.41127	-0.256501	-0.530347	1.55584	-0.338576	-0.497624	1.33975	-0.243582	-0.520474	1.33589	-0.215564	-0.403278	1.15297	-0.443086	-0.573587	1.19341	-0.53917	-0.190429	0.0433365	-0.277739	-0.308543	0.124422	-0.305953	-0.371559	0.106335	-0.371149	-0.275978	0.631171	-0.347792	-0.240683	0.374929	-0.327943	-0.30418	0.489814	-0.301401	-0.31014	0.379191	-0.284521	-0.238409	0.486582	-0.33722	-0.373782	0.90848	-0.356186	-0.312403	0.81611	-0.34304	-0.354348	0.761243	-0.33515	-0.46504	0.847564	-0.383756	-0.402136	0.748214	-0.362246	-0.14732	0.0663833	-0.326952
4	1.58	-0.353923	1.62265	-0.629555	-0.388771	1.09421	-0.706108	-0.564423	1.16076	-0.631149	-0.185197	0.0378679	-0.909024	-0.479988	1.01791	-0.667981	-0.464131	1.03135	-0.654165	-0.276715	1.58099	-0.774095	-0.248839	1.50613	-0.626818	-0.299446	0.121645	-0.84807	-0.344304	0.0959958	-0.770066	-0.440486	1.35955	-1.02437	-0.497322	1.34056	-0.964414	-0.281072	1.26895	-0.937307	-0.369195	1.38337	-0.950808	-0.255653	0.610686	-0.823227	-0.275166	0.426198	-0.870135	-0.287945	0.308784	-0.85869	-0.200099	0.413519	-0.82661	-0.331806	0.903188	-0.782934	-0.26639	0.786554	-0.80461	-0.430352	0.856435	-0.800645	-0.361916	0.738205	-0.826146	-0.127237	0.0631994	-0.862895	-0.232903	1.2413	-0.891929	-0.228736	1.22685	-0.922783	-0.480909	1.03333	-0.471107	-0.468847	1.03676	-0.479349	-0.308274	1.59702	-0.455582	-0.253911	1.51268	-0.577757	-0.649408	1.53466	-0.317847	-0.677167	1.48645	-0.385201	-0.533659	1.36753	-0.26108	-0.522552	1.51292	-0.341047	-0.482446	1.29819	-0.247886	-0.505068	1.29292	-0.220404	-0.395483	1.12245	-0.442604	-0.566913	1.16362	-0.538843	-0.191479	0.0390603	-0.276543	-0.31536	0.108093	-0.309444	-0.378511	0.0812201	-0.373887	-0.255617	0.60831	-0.346362	-0.229942	0.351793	-0.330494	-0.2865	0.468889	-0.301011	-0.298701	0.358759	-0.285996	-0.221587	0.462512	-0.338528	-0.362001	0.881818	-0.353828	-0.298374	0.790623	-0.340608	-0.33876	0.734273	-0.334943	-0.451545	0.817637	-0.383642	-0.385745	0.72	-0.3625	-0.149344	0.0631708	-0.326377
5	1.59	-0.344458	1.59215	-0.628738	-0.383863	1.06461	-0.70448	-0.559998	1.13277	-0.630884	-0.187744	0.0374149	-0.909187	-0.476176	0.988993	-0.668017	-0.459309	1.00272	-0.653716	-0.268461	1.54898	-0.775363	-0.238726	1.47557	-0.626114	-0.310444	0.110994	-0.84255	-0.354156	0.0778173	-0.768477	-0.430036	1.31866	-1.01986	-0.486506	1.30084	-0.960078	-0.26954	1.23156	-0.93181	-0.35946	1.34457	-0.947246	-0.232004	0.59468	-0.822952	-0.264137	0.414377	-0.866783	-0.283732	0.297387	-0.856035	-0.18886	0.396661	-0.824945	-0.320785	0.882791	-0.78821	-0.250336	0.768211	-0.806838	-0.416837	0.830419	-0.800465	-0.343986	0.716029	-0.829186	-0.131526	0.0644984	-0.862014	-0.221216	1.20507	-0.885928	-0.216896	1.19022	-0.916537	-0.477039	1.00321	-0.471053	-0.46436	1.00635	-0.480093	-0.299187	1.56449	-0.452264	-0.24411	1.48218	-0.576929	-0.641318	1.4842	-0.321425	-0.665232	1.43529	-0.389777	-0.518267	1.32144	-0.264978	-0.51314	1.46736	-0.342622	-0.464106	1.25458	-0.251697	-0.486757	1.24771	-0.224773	-0.389776	1.09107	-0.442637	-0.562706	1.1347	-0.537963	-0.19391	0.0401517	-0.276265	-0.323386	0.10131	-0.31317	-0.38536	0.0676447	-0.376203	-0.230025	0.591988	-0.346095	-0.220234	0.335288	-0.336395	-0.267305	0.455737	-0.30301	-0.288181	0.346723	-0.29098	-0.203205	0.445482	-0.341531	-0.348016	0.859161	-0.350807	-0.280392	0.770558	-0.339863	-0.318201	0.71226	-0.335515	-0.435351	0.791006	-0.381445	-0.36488	0.696165	-0.361938	-0.152859	0.0650192	-0.326869
6	1.6	-0.334194	1.56211	-0.627046	-0.381879	1.03592	-0.70231	-0.557726	1.10729	-0.62977	-0.187386	0.037841	-0.909181	-0.476308	0.961989	-0.668016	-0.458204	0.975821	-0.652962	-0.261101	1.51778	-0.776337	-0.227923	1.44493	-0.625743	-0.307844	0.110344	-0.838627	-0.353889	0.073979	-0.767286	-0.418034	1.27708	-1.01498	-0.474458	1.26016	-0.955085	-0.256383	1.19344	-0.925732	-0.348557	1.30525	-0.943041	-0.211257	0.586498	-0.823035	-0.247287	0.41247	-0.866899	-0.271498	0.29546	-0.856896	-0.171855	0.389936	-0.826605	-0.313057	0.866293	-0.793438	-0.236532	0.754875	-0.809457	-0.405921	0.807458	-0.798571	-0.327636	0.697561	-0.828718	-0.131014	0.0642254	-0.861747	-0.208049	1.16818	-0.879365	-0.203529	1.1529	-0.909678	-0.476948	0.974235	-0.470926	-0.463952	0.977799	-0.481076	-0.290043	1.5321	-0.449638	-0.233126	1.45109	-0.574602	-0.631007	1.43172	-0.323497	-0.651051	1.38179	-0.392378	-0.49989	1.27373	-0.268005	-0.501582	1.41984	-0.343166	-0.442596	1.20936	-0.255291	-0.465318	1.20093	-0.228663	-0.386986	1.05957	-0.442841	-0.560851	1.10836	-0.536357	-0.194326	0.042067	-0.276825	-0.323199	0.103806	-0.315512	-0.384346	0.0702628	-0.377735	-0.200674	0.585433	-0.347298	-0.206769	0.328824	-0.340778	-0.24565	0.452881	-0.306336	-0.274428	0.345264	-0.296011	-0.181589	0.438956	-0.343344	-0.332904	0.843924	-0.349475	-0.259216	0.760308	-0.341719	-0.293199	0.699743	-0.33627	-0.416578	0.771065	-0.378786	-0.339791	0.680574	-0.360669	-0.152822	0.0659115	-0.327696
7	1.61	-0.322692	1.53297	-0.625095	-0.382402	1.00905	-0.700883	-0.556697	1.08457	-0.627964	-0.18511	0.039748	-0.908283	-0.479328	0.937553	-0.667946	-0.460701	0.9508	-0.652082	-0.254045	1.48755	-0.77712	-0.216617	1.41436	-0.625897	-0.298281	0.11775	-0.835672	-0.348354	0.0791632	-0.765282	-0.404309	1.23565	-1.00992	-0.461003	1.21891	-0.949324	-0.241412	1.15528	-0.918974	-0.335849	1.26673	-0.9385	-0.188524	0.586985	-0.825456	-0.224162	0.417656	-0.870545	-0.254867	0.301437	-0.858994	-0.15021	0.390249	-0.829372	-0.308174	0.854556	-0.796986	-0.223665	0.749176	-0.812811	-0.396551	0.788511	-0.796983	-0.310169	0.684293	-0.825801	-0.127308	0.0640477	-0.861324	-0.193268	1.13143	-0.872169	-0.188504	1.11568	-0.902215	-0.479471	0.947467	-0.470725	-0.466585	0.952003	-0.480929	-0.280729	1.50018	-0.447864	-0.221761	1.42037	-0.572824	-0.618056	1.37803	-0.323466	-0.634424	1.3271	-0.392557	-0.478231	1.22516	-0.270104	-0.487625	1.3715	-0.342569	-0.418002	1.16326	-0.258935	-0.440481	1.15329	-0.232279	-0.386516	1.02943	-0.442247	-0.559905	1.08523	-0.534466	-0.192445	0.0438587	-0.278298	-0.315733	0.111489	-0.317347	-0.377431	0.0820412	-0.379854	-0.171101	0.586685	-0.349168	-0.188667	0.329945	-0.341521	-0.220739	0.456753	-0.308083	-0.255671	0.351006	-0.297059	-0.157145	0.439682	-0.343441	-0.319439	0.836002	-0.351734	-0.238888	0.759374	-0.345077	-0.267864	0.696614	-0.335983	-0.397824	0.757186	-0.376643	-0.313702	0.672988	-0.359019	-0.149019	0.0653475	-0.328573
8	1.62	-0.310313	1.50476	-0.623561	-0.383772	0.984255	-0.701232	-0.555656	1.06335	-0.626124	-0.182668	0.042089	-0.906896	-0.482356	0.914978	-0.667605	-0.464263	0.926928	-0.651536	-0.246195	1.45792	-0.777844	-0.205561	1.38388	-0.626334	-0.290007	0.126657	-0.833915	-0.342543	0.0870188	-0.762679	-0.388961	1.19495	-1.00457	-0.446082	1.17771	-0.943356	-0.224768	1.11775	-0.911508	-0.321402	1.22995	-0.933846	-0.163421	0.591282	-0.830194	-0.202022	0.423285	-0.874235	-0.239818	0.309105	-0.860716	-0.130505	0.392437	-0.830949	-0.304712	0.845986	-0.798425	-0.21192	0.7484	-0.816103	-0.387807	0.773198	-0.797496	-0.2927	0.675854	-0.825727	-0.123506	0.0643842	-0.860629	-0.176851	1.09559	-0.864248	-0.171932	1.07924	-0.894109	-0.48166	0.923341	-0.470305	-0.469146	0.928282	-0.478949	-0.270688	1.46868	-0.446501	-0.210961	1.39025	-0.572599	-0.601949	1.32393	-0.320722	-0.615348	1.2725	-0.390179	-0.453209	1.17655	-0.271313	-0.471298	1.32379	-0.34089	-0.390189	1.11732	-0.262575	-0.412071	1.10561	-0.235886	-0.38642	1.00249	-0.44027	-0.558289	1.06407	-0.533091	-0.190078	0.0461326	-0.280365	-0.307431	0.120296	-0.320135	-0.370251	0.0943354	-0.383598	-0.144794	0.589979	-0.350719	-0.169895	0.332905	-0.342584	-0.195147	0.460995	-0.308032	-0.234961	0.357402	-0.295983	-0.133507	0.441643	-0.344661	-0.309528	0.830798	-0.355809	-0.223287	0.761544	-0.34767	-0.246715	0.697027	-0.334498	-0.382042	0.745019	-0.374443	-0.290729	0.668557	-0.35749	-0.144708	0.0652283	-0.329669
